<svg aria-hidden="true" style="position: absolute; width: 0; height: 0; overflow: hidden;" version="1.1" xmlns="http://www.w3.org/2000/svg" xmlns:xlink="http://www.w3.org/1999/xlink">
<defs>
<symbol id="icon-random" viewBox="0 0 24 24">
<path d="M12.984 8.578q-0.563 0-0.984 0.422t-0.422 0.984q0 0.609 0.422 1.031t0.984 0.422q0.609 0 1.031-0.422t0.422-1.031q0-0.563-0.422-0.984t-1.031-0.422zM12.984 3q-1.406 0-2.625 0.516t-2.18 1.43-1.523 2.109-0.656 2.602l-1.922 2.531q-0.188 0.281-0.047 0.539t0.469 0.258h1.5v3q0 0.844 0.586 1.43t1.43 0.586h0.984v3h6.984v-4.688q1.781-0.844 2.906-2.531t1.125-3.797q0-1.453-0.563-2.719t-1.523-2.227-2.227-1.5-2.719-0.539zM15.984 9.984v0.422l0.844 0.656q0.094 0.094 0.047 0.234l-0.797 1.406q-0.094 0.141-0.281 0.094l-0.984-0.422q-0.281 0.234-0.656 0.375l-0.141 1.078q-0.047 0.188-0.234 0.188h-1.594q-0.141 0-0.188-0.188l-0.141-1.078q-0.375-0.141-0.703-0.375l-0.984 0.422q-0.141 0.047-0.234-0.094l-0.797-1.406q-0.094-0.141 0.047-0.234l0.844-0.656q0-0.094-0.023-0.211t-0.023-0.211 0.023-0.188 0.023-0.188l-0.844-0.656q-0.141-0.094-0.047-0.281l0.797-1.359q0.094-0.141 0.234-0.094l1.031 0.422q0.328-0.281 0.656-0.422l0.141-1.031q0.047-0.188 0.188-0.188h1.594q0.188 0 0.234 0.188l0.141 1.031q0.328 0.141 0.656 0.422l0.984-0.422q0.188-0.047 0.281 0.094l0.797 1.359q0.094 0.188-0.047 0.281l-0.891 0.656q0.047 0.141 0.047 0.375z"></path>
</symbol>
<symbol id="icon-unarchive" viewBox="0 0 24 24">
<path d="M5.109 5.016h13.781l-0.938-1.031h-12zM12 9.516l-5.484 5.484h3.469v2.016h4.031v-2.016h3.469zM20.531 5.203q0.469 0.563 0.469 1.313v12.469q0 0.797-0.609 1.406t-1.406 0.609h-13.969q-0.844 0-1.43-0.586t-0.586-1.43v-12.469q0-0.75 0.469-1.313l1.359-1.641q0.469-0.563 1.172-0.563h12q0.703 0 1.172 0.563z"></path>
</symbol>
<symbol id="icon-edit" viewBox="0 0 24 24">
<path d="M20.719 7.031l-1.828 1.828-3.75-3.75 1.828-1.828q0.281-0.281 0.703-0.281t0.703 0.281l2.344 2.344q0.281 0.281 0.281 0.703t-0.281 0.703zM3 17.25l11.063-11.063 3.75 3.75-11.063 11.063h-3.75v-3.75z"></path>
</symbol>
<symbol id="icon-archive" viewBox="0 0 24 24">
<path d="M5.109 5.016h13.781l-0.938-1.031h-12zM12 17.484l5.484-5.484h-3.469v-2.016h-4.031v2.016h-3.469zM20.531 5.25q0.469 0.563 0.469 1.266v12.469q0 0.797-0.609 1.406t-1.406 0.609h-13.969q-0.797 0-1.406-0.609t-0.609-1.406v-12.469q0-0.703 0.469-1.266l1.359-1.688q0.469-0.563 1.172-0.563h12q0.703 0 1.172 0.563z"></path>
</symbol>
<symbol id="icon-delete" viewBox="0 0 24 24">
<path d="M18.984 3.984v2.016h-13.969v-2.016h3.469l1.031-0.984h4.969l1.031 0.984h3.469zM6 18.984v-12h12v12q0 0.797-0.609 1.406t-1.406 0.609h-7.969q-0.797 0-1.406-0.609t-0.609-1.406z"></path>
</symbol>
<symbol id="icon-quote" viewBox="0 0 24 24">
<path d="M14.016 17.016l1.969-4.031h-3v-6h6v6l-1.969 4.031h-3zM6 17.016l2.016-4.031h-3v-6h6v6l-2.016 4.031h-3z"></path>
</symbol>
<symbol id="icon-idea" viewBox="0 0 24 24">
<path d="M12 2.016q2.906 0 4.945 2.039t2.039 4.945q0 3.516-3 5.719v2.297q0 0.422-0.281 0.703t-0.703 0.281h-6q-0.422 0-0.703-0.281t-0.281-0.703v-2.297q-3-2.063-3-5.719 0-2.906 2.039-4.945t4.945-2.039zM9 21v-0.984h6v0.984q0 0.422-0.281 0.703t-0.703 0.281h-4.031q-0.422 0-0.703-0.281t-0.281-0.703z"></path>
</symbol>
<symbol id="icon-task" viewBox="0 0 24 24">
<path d="M17.016 18q0.797 0 1.383 0.609t0.586 1.406-0.586 1.383-1.383 0.586-1.406-0.586-0.609-1.383 0.609-1.406 1.406-0.609zM0.984 2.016h3.281l0.938 1.969h14.813q0.422 0 0.703 0.305t0.281 0.727q0 0.047-0.141 0.469l-3.563 6.469q-0.563 1.031-1.734 1.031h-7.453l-0.891 1.641-0.047 0.141q0 0.234 0.234 0.234h11.578v2.016h-12q-0.797 0-1.383-0.609t-0.586-1.406q0-0.469 0.234-0.938l1.359-2.484-3.609-7.594h-2.016v-1.969zM6.984 18q0.797 0 1.406 0.609t0.609 1.406-0.609 1.383-1.406 0.586-1.383-0.586-0.586-1.383 0.586-1.406 1.383-0.609z"></path>
</symbol>
<symbol id="icon-add" viewBox="0 0 24 24">
<path d="M17.016 12.984v-1.969h-4.031v-4.031h-1.969v4.031h-4.031v1.969h4.031v4.031h1.969v-4.031h4.031zM12 2.016q4.125 0 7.055 2.93t2.93 7.055-2.93 7.055-7.055 2.93-7.055-2.93-2.93-7.055 2.93-7.055 7.055-2.93z"></path>
</symbol>
</defs>
</svg>
